<?xml version="1.0" encoding="utf-8"?>
<!-- Generator: Adobe Illustrator 22.0.1, SVG Export Plug-In . SVG Version: 6.00 Build 0)  -->
<svg version="1.1" id="Layer_1" xmlns="http://www.w3.org/2000/svg" xmlns:xlink="http://www.w3.org/1999/xlink" x="0px" y="0px"
	 viewBox="0 0 4000 4000" style="enable-background:new 0 0 4000 4000;" xml:space="preserve">
<style type="text/css">
	.st0{fill:none;stroke:#0071BC;stroke-width:32;stroke-miterlimit:10;}
	.st1{fill:none;stroke:#0071BC;stroke-width:44;stroke-miterlimit:10;}
	.st2{fill:none;stroke:#383838;stroke-width:38;stroke-miterlimit:10;}
	.st3{fill:none;stroke:#0071BC;stroke-width:31;stroke-miterlimit:10;}
	.st4{stroke:#000000;stroke-width:5;stroke-miterlimit:10;}
	.st5{font-family:'Kiona-Regular';}
	.st6{font-size:233px;}
</style>
<rect x="1038" y="1434.5" class="st0" width="1573" height="1035"/>
<circle class="st1" cx="1887" cy="1865" r="381.5"/>
<circle class="st2" cx="1888" cy="1865" r="354.5"/>
<rect x="2065" y="1365.5" class="st3" width="369.7" height="65"/>
<g>
	<path d="M1322.8,2438.9c0,0-1.1-10.3-1.5-17.2c-0.5-6.9-1.1-21.1-1.2-24.3c-0.2-3.2-1.3-24.1-1.3-25.6s-0.8-23.1-0.9-25.5
		c0,0-0.5-18.4-0.7-20.5s-0.8-26.7-1-29.6s-0.6-23.7-0.6-24.8s-0.4-19.6-0.4-20.5c0-1,0.1-7.2,0.2-7.2s4.5-0.5,5.7-1
		c1.2-0.5,2.7-1.3,3.5-2s2-2.1,2.2-2.7s0.5-2.1,0-3.1c-0.5-1-1.5-2.4-1.7-2.5c-0.2-0.1,2.8-1.9,2.8-2.9c0-1-0.1-4.4,0-4.8
		s0.7-1.7,0.7-2.2c0-0.5,0.2-1.8,0-2c-0.2-0.2-1-1.2-1.5-1.6c-0.6-0.4-1.1-0.3-1.1-0.5c0-0.2-1.5-2.5-1.9-3
		c-0.4-0.4-0.8-0.8-0.8-0.9s0-5.3-0.1-5.4c-0.1-0.1-0.4-0.8-1.4-1.3c-1-0.5-2.4-1-3-1.3s-2.8-0.5-3-0.6c-0.2-0.2,0-3,0-3.1
		c0.1-0.1,0.7-0.2,0.7-0.5c0.1-0.3,0.1-5.5,0.1-5.5l-1-0.5h-2.3l0.3-51.9c0,0,1.2-1.1,1.1-1.2s-0.2-0.5,0-0.6
		c0.2-0.1,0.9-0.7,0.9-0.8s0.2-2.1,0.1-2.3c-0.1-0.1-0.1-1-0.6-1.4c-0.4-0.5-1.2-1-1.7-1.6c-0.4-0.6-1.2-1.3-1.2-1.6
		s0.1-34.3,0-34.4c-0.1-0.1-0.9-0.4-0.9-0.6c0-0.2,0.2-14,0-14.2c-0.2-0.2-1.3-0.5-1.3-0.7c0-0.1,0.1-32.2,0-32.4
		c-0.1-0.2-0.4-0.2-0.5-0.5c-0.1-0.3,0-7.8,0-7.8h-1.6c0,0,0.1,7.6,0.1,7.7c0,0.1-0.3,0.5-0.3,0.7c0,0.2,0.1,32.1,0,32.2
		c-0.1,0.1-1.4,0.8-1.4,1.1s0.3,13.6,0,13.8c-0.3,0.2-1,0.6-1,0.7c0,0.1,0.3,34.2,0,34.4c-0.3,0.2-1.8,2.4-2,2.4
		c-0.1,0-1.1,0.4-1.1,0.6c-0.1,0.2-0.3,0.8-0.4,1.2c-0.1,0.4-0.2,1.1-0.1,1.4c0.1,0.3,0.1,0.7,0.1,0.8c0,0.1,0.1,0.8,0.2,0.9
		c0.1,0.2,0.7,0.4,0.7,0.7c0,0.3,0.3,0.9,0.5,1.1c0.2,0.1,0.8,0.5,0.8,0.6c0,0.1-0.2,0.9-0.2,1.3s0,49.6,0,49.6s-2.8,2-2.8,2.1
		c0,0.1,0,5.6,0,5.6h1.1c0,0,0.1,2.9-0.2,2.9s-4,0.9-4.5,1.2c-0.5,0.2-2.1,0.8-2.5,1.2c-0.4,0.4-0.7,0.6-0.7,1.2c0,0.7-0.1,4.9,0,5
		c0.1,0.1-0.1,0.4-0.2,0.6c-0.2,0.3-2.5,3.3-2.6,3.3s-1.8,0.8-2,1c-0.2,0.2-0.5,0.7-0.5,1c-0.1,0.3-0.2,1.4-0.1,1.9
		c0.1,0.5,0.6,0.9,0.6,1.4c0,0.5,0,3.8,0.1,4.4c0,0.6-0.1,0.9,0,1.3c0.1,0.5,0.9,1.5,1,1.7c0.2,0.1,1.5,1.2,1.4,1.3
		c0,0.1-1.6,1.3-1.8,2.4c-0.1,1-0.2,2.7,0.2,3.4s1,1.6,1.7,2.2s2.4,1.9,3.1,2.1c0.6,0.3,2.2,0.8,3,0.9c0.7,0.1,3.3,0.2,3.3,0.4
		s-0.2,19.7-0.2,21.9s-0.6,16.3-0.6,19c-0.1,2.7-0.9,23.4-0.9,24.7c0,1.3-1,22.8-1.1,24.2s-1,20.4-1.1,23.6
		c-0.1,3.2-0.9,23.2-1.1,24.9c-0.2,1.7-2.7,56.4-2.9,57C1292.9,2439.5,1322.8,2438.9,1322.8,2438.9z"/>
	<text transform="matrix(1 0 0 1 1135.0244 2434.8301)" class="st4 st5 st6">Six Photos</text>
</g>
</svg>
